<svg width="762" height="118" xmlns="http://www.w3.org/2000/svg" style="background-color: #0d1117; border-radius: 6px;"><circle cx="15" cy="15" r="2" fill="#2d333b" /><circle cx="15" cy="29" r="2" fill="#2d333b" /><circle cx="15" cy="43" r="2" fill="#2d333b" /><circle cx="15" cy="57" r="2" fill="#2d333b" /><circle cx="15" cy="71" r="2" fill="#2d333b" /><circle cx="15" cy="85" r="2" fill="#2d333b" /><circle cx="15" cy="99" r="2" fill="#2d333b" /><circle cx="29" cy="15" r="2" fill="#2d333b" /><circle cx="29" cy="29" r="2" fill="#2d333b" /><circle cx="29" cy="43" r="2" fill="#2d333b" /><circle cx="29" cy="57" r="2" fill="#2d333b" /><circle cx="29" cy="71" r="2" fill="#2d333b" /><circle cx="29" cy="85" r="2" fill="#2d333b" /><circle cx="29" cy="99" r="2" fill="#2d333b" /><circle cx="43" cy="15" r="2" fill="#2d333b" /><circle cx="43" cy="29" r="2" fill="#2d333b" /><circle cx="43" cy="43" r="2" fill="#2d333b" /><circle cx="43" cy="57" r="2" fill="#2d333b" /><circle cx="43" cy="71" r="2" fill="#2d333b" /><circle cx="43" cy="85" r="2" fill="#2d333b" /><circle cx="43" cy="99" r="2" fill="#2d333b" /><circle cx="57" cy="15" r="2" fill="#2d333b" /><circle cx="57" cy="29" r="2" fill="#2d333b" /><circle cx="57" cy="43" r="2" fill="#2d333b" /><circle cx="57" cy="57" r="2" fill="#2d333b" /><circle cx="57" cy="71" r="2" fill="#2d333b" /><circle cx="57" cy="85" r="2" fill="#2d333b" /><circle cx="57" cy="99" r="2" fill="#2d333b" /><circle cx="71" cy="15" r="2" fill="#2d333b" /><circle cx="71" cy="29" r="2" fill="#2d333b" /><circle cx="71" cy="43" r="2" fill="#2d333b" /><circle cx="71" cy="57" r="2" fill="#2d333b" /><circle cx="71" cy="71" r="2" fill="#2d333b" /><circle cx="71" cy="85" r="2" fill="#2d333b" /><circle cx="71" cy="99" r="2" fill="#2d333b" /><circle cx="85" cy="15" r="2" fill="#2d333b" /><circle cx="85" cy="29" r="2" fill="#2d333b" /><circle cx="85" cy="43" r="2" fill="#2d333b" /><circle cx="85" cy="57" r="2" fill="#2d333b" /><circle cx="85" cy="71" r="2" fill="#2d333b" /><circle cx="85" cy="85" r="2" fill="#2d333b" /><circle cx="85" cy="99" r="2" fill="#2d333b" /><circle cx="99" cy="15" r="2" fill="#2d333b" /><circle cx="99" cy="29" r="2" fill="#2d333b" /><circle cx="99" cy="43" r="2" fill="#2d333b" /><circle cx="99" cy="57" r="2" fill="#2d333b" /><circle cx="99" cy="71" r="2" fill="#2d333b" /><circle cx="99" cy="85" r="2" fill="#2d333b" /><circle cx="99" cy="99" r="2" fill="#2d333b" /><circle cx="113" cy="15" r="2" fill="#2d333b" /><circle cx="113" cy="29" r="2" fill="#2d333b" /><circle cx="113" cy="43" r="2" fill="#2d333b" /><circle cx="113" cy="57" r="2" fill="#2d333b" /><circle cx="113" cy="71" r="2" fill="#2d333b" /><circle cx="113" cy="85" r="2" fill="#2d333b" /><circle cx="113" cy="99" r="2" fill="#2d333b" /><circle cx="127" cy="15" r="2" fill="#2d333b" /><circle cx="127" cy="29" r="2" fill="#2d333b" /><circle cx="127" cy="43" r="2" fill="#2d333b" /><circle cx="127" cy="57" r="2" fill="#2d333b" /><circle cx="127" cy="71" r="2" fill="#2d333b" /><circle cx="127" cy="85" r="2" fill="#2d333b" /><circle cx="127" cy="99" r="2" fill="#2d333b" /><circle cx="141" cy="15" r="2" fill="#2d333b" /><circle cx="141" cy="29" r="2" fill="#2d333b" /><circle cx="141" cy="43" r="2" fill="#2d333b" /><circle cx="141" cy="57" r="2" fill="#2d333b" /><circle cx="141" cy="71" r="2" fill="#2d333b" /><circle cx="141" cy="85" r="2" fill="#2d333b" /><circle cx="141" cy="99" r="2" fill="#2d333b" /><circle cx="155" cy="15" r="2" fill="#2d333b" /><circle cx="155" cy="29" r="2" fill="#2d333b" /><circle cx="155" cy="43" r="2" fill="#2d333b" /><circle cx="155" cy="57" r="2" fill="#2d333b" /><circle cx="155" cy="71" r="2" fill="#2d333b" /><circle cx="155" cy="85" r="2" fill="#2d333b" /><circle cx="155" cy="99" r="2" fill="#2d333b" /><circle cx="169" cy="15" r="2" fill="#2d333b" /><circle cx="169" cy="29" r="2" fill="#2d333b" /><circle cx="169" cy="43" r="2" fill="#2d333b" /><circle cx="169" cy="57" r="2" fill="#2d333b" /><circle cx="169" cy="71" r="2" fill="#2d333b" /><circle cx="169" cy="85" r="2" fill="#2d333b" /><circle cx="169" cy="99" r="2" fill="#2d333b" /><circle cx="183" cy="15" r="2" fill="#2d333b" /><circle cx="183" cy="29" r="2" fill="#2d333b" /><circle cx="183" cy="43" r="2" fill="#2d333b" /><circle cx="183" cy="57" r="2" fill="#2d333b" /><circle cx="183" cy="71" r="2" fill="#2d333b" /><circle cx="183" cy="85" r="2" fill="#2d333b" /><circle cx="183" cy="99" r="2" fill="#2d333b" /><circle cx="197" cy="15" r="2" fill="#2d333b" /><circle cx="197" cy="29" r="2" fill="#2d333b" /><circle cx="197" cy="43" r="2" fill="#2d333b" /><circle cx="197" cy="57" r="2" fill="#2d333b" /><circle cx="197" cy="71" r="2" fill="#2d333b" /><circle cx="197" cy="85" r="2" fill="#2d333b" /><circle cx="197" cy="99" r="2" fill="#2d333b" /><circle cx="211" cy="15" r="2" fill="#2d333b" /><circle cx="211" cy="29" r="2" fill="#2d333b" /><circle cx="211" cy="43" r="2" fill="#2d333b" /><circle cx="211" cy="57" r="2" fill="#2d333b" /><circle cx="211" cy="71" r="2" fill="#2d333b" /><circle cx="211" cy="85" r="2" fill="#2d333b" /><circle cx="211" cy="99" r="2" fill="#2d333b" /><circle cx="225" cy="15" r="2" fill="#2d333b" /><circle cx="225" cy="29" r="2" fill="#2d333b" /><circle cx="225" cy="43" r="2" fill="#2d333b" /><circle cx="225" cy="57" r="2" fill="#2d333b" /><circle cx="225" cy="71" r="2" fill="#2d333b" /><circle cx="225" cy="85" r="2" fill="#2d333b" /><circle cx="225" cy="99" r="2" fill="#2d333b" /><circle cx="239" cy="15" r="2" fill="#2d333b" /><circle cx="239" cy="29" r="2" fill="#2d333b" /><circle cx="239" cy="43" r="2" fill="#2d333b" /><circle cx="239" cy="57" r="2" fill="#2d333b" /><circle cx="239" cy="71" r="2" fill="#2d333b" /><circle cx="239" cy="85" r="2" fill="#2d333b" /><circle cx="239" cy="99" r="2" fill="#2d333b" /><circle cx="253" cy="15" r="2" fill="#2d333b" /><circle cx="253" cy="29" r="2" fill="#2d333b" /><circle cx="253" cy="43" r="2" fill="#2d333b" /><circle cx="253" cy="57" r="2" fill="#2d333b" /><circle cx="253" cy="71" r="2" fill="#2d333b" /><circle cx="253" cy="85" r="2" fill="#2d333b" /><circle cx="253" cy="99" r="2" fill="#2d333b" /><circle cx="267" cy="15" r="2" fill="#2d333b" /><circle cx="267" cy="29" r="2" fill="#2d333b" /><circle cx="267" cy="43" r="2" fill="#2d333b" /><circle cx="267" cy="57" r="2" fill="#2d333b" /><circle cx="267" cy="71" r="2" fill="#2d333b" /><circle cx="267" cy="85" r="2" fill="#2d333b" /><circle cx="267" cy="99" r="2" fill="#2d333b" /><circle cx="281" cy="15" r="2" fill="#2d333b" /><circle cx="281" cy="29" r="2" fill="#2d333b" /><circle cx="281" cy="43" r="2" fill="#2d333b" /><circle cx="281" cy="57" r="2" fill="#2d333b" /><circle cx="281" cy="71" r="2" fill="#2d333b" /><circle cx="281" cy="85" r="2" fill="#2d333b" /><circle cx="281" cy="99" r="2" fill="#2d333b" /><circle cx="295" cy="15" r="2" fill="#2d333b" /><circle cx="295" cy="29" r="2" fill="#2d333b" /><circle cx="295" cy="43" r="2" fill="#2d333b" /><circle cx="295" cy="57" r="2" fill="#2d333b" /><circle cx="295" cy="71" r="2" fill="#2d333b" /><circle cx="295" cy="85" r="2" fill="#2d333b" /><circle cx="295" cy="99" r="2" fill="#2d333b" /><circle cx="309" cy="15" r="2" fill="#2d333b" /><circle cx="309" cy="29" r="2" fill="#2d333b" /><circle cx="309" cy="43" r="2" fill="#2d333b" /><circle cx="309" cy="57" r="2" fill="#2d333b" /><circle cx="309" cy="71" r="4" fill="#ffb86c" /><circle cx="309" cy="85" r="2" fill="#2d333b" /><circle cx="309" cy="99" r="2" fill="#2d333b" /><circle cx="323" cy="15" r="2" fill="#2d333b" /><circle cx="323" cy="29" r="2" fill="#2d333b" /><circle cx="323" cy="43" r="2" fill="#2d333b" /><circle cx="323" cy="57" r="2" fill="#2d333b" /><circle cx="323" cy="71" r="2" fill="#2d333b" /><circle cx="323" cy="85" r="2" fill="#2d333b" /><circle cx="323" cy="99" r="2" fill="#2d333b" /><circle cx="337" cy="15" r="2" fill="#2d333b" /><circle cx="337" cy="29" r="2" fill="#2d333b" /><circle cx="337" cy="43" r="2" fill="#2d333b" /><circle cx="337" cy="57" r="2" fill="#2d333b" /><circle cx="337" cy="71" r="2" fill="#2d333b" /><circle cx="337" cy="85" r="2" fill="#2d333b" /><circle cx="337" cy="99" r="2" fill="#2d333b" /><circle cx="351" cy="15" r="2" fill="#2d333b" /><circle cx="351" cy="29" r="2" fill="#2d333b" /><circle cx="351" cy="43" r="2" fill="#2d333b" /><circle cx="351" cy="57" r="2" fill="#2d333b" /><circle cx="351" cy="71" r="2" fill="#2d333b" /><circle cx="351" cy="85" r="2" fill="#2d333b" /><circle cx="351" cy="99" r="2" fill="#2d333b" /><circle cx="365" cy="15" r="2" fill="#2d333b" /><circle cx="365" cy="29" r="2" fill="#2d333b" /><circle cx="365" cy="43" r="2" fill="#2d333b" /><circle cx="365" cy="57" r="2" fill="#2d333b" /><circle cx="365" cy="71" r="2" fill="#2d333b" /><circle cx="365" cy="85" r="2" fill="#2d333b" /><circle cx="365" cy="99" r="2" fill="#2d333b" /><circle cx="379" cy="15" r="2" fill="#2d333b" /><circle cx="379" cy="29" r="2" fill="#2d333b" /><circle cx="379" cy="43" r="2" fill="#2d333b" /><circle cx="379" cy="57" r="2" fill="#2d333b" /><circle cx="379" cy="71" r="2" fill="#2d333b" /><circle cx="379" cy="85" r="2" fill="#2d333b" /><circle cx="379" cy="99" r="2" fill="#2d333b" /><circle cx="393" cy="15" r="2" fill="#2d333b" /><circle cx="393" cy="29" r="2" fill="#2d333b" /><circle cx="393" cy="43" r="2" fill="#2d333b" /><circle cx="393" cy="57" r="2" fill="#2d333b" /><circle cx="393" cy="71" r="2" fill="#2d333b" /><circle cx="393" cy="85" r="2" fill="#2d333b" /><circle cx="393" cy="99" r="2" fill="#2d333b" /><circle cx="407" cy="15" r="2" fill="#2d333b" /><circle cx="407" cy="29" r="2" fill="#2d333b" /><circle cx="407" cy="43" r="2" fill="#2d333b" /><circle cx="407" cy="57" r="2" fill="#2d333b" /><circle cx="407" cy="71" r="2" fill="#2d333b" /><circle cx="407" cy="85" r="2" fill="#2d333b" /><circle cx="407" cy="99" r="2" fill="#2d333b" /><circle cx="421" cy="15" r="2" fill="#2d333b" /><circle cx="421" cy="29" r="2" fill="#2d333b" /><circle cx="421" cy="43" r="2" fill="#2d333b" /><circle cx="421" cy="57" r="2" fill="#2d333b" /><circle cx="421" cy="71" r="2" fill="#2d333b" /><circle cx="421" cy="85" r="2" fill="#2d333b" /><circle cx="421" cy="99" r="2" fill="#2d333b" /><circle cx="435" cy="15" r="2" fill="#2d333b" /><circle cx="435" cy="29" r="2" fill="#2d333b" /><circle cx="435" cy="43" r="2" fill="#2d333b" /><circle cx="435" cy="57" r="2" fill="#2d333b" /><circle cx="435" cy="71" r="2" fill="#2d333b" /><circle cx="435" cy="85" r="2" fill="#2d333b" /><circle cx="435" cy="99" r="2" fill="#2d333b" /><circle cx="449" cy="15" r="2" fill="#2d333b" /><circle cx="449" cy="29" r="2" fill="#2d333b" /><circle cx="449" cy="43" r="2" fill="#2d333b" /><circle cx="449" cy="57" r="2" fill="#2d333b" /><circle cx="449" cy="71" r="2" fill="#2d333b" /><circle cx="449" cy="85" r="2" fill="#2d333b" /><circle cx="449" cy="99" r="2" fill="#2d333b" /><circle cx="463" cy="15" r="2" fill="#2d333b" /><circle cx="463" cy="29" r="2" fill="#2d333b" /><circle cx="463" cy="43" r="2" fill="#2d333b" /><circle cx="463" cy="57" r="2" fill="#2d333b" /><circle cx="463" cy="71" r="2" fill="#2d333b" /><circle cx="463" cy="85" r="2" fill="#2d333b" /><circle cx="463" cy="99" r="2" fill="#2d333b" /><circle cx="477" cy="15" r="2" fill="#2d333b" /><circle cx="477" cy="29" r="2" fill="#2d333b" /><circle cx="477" cy="43" r="2" fill="#2d333b" /><circle cx="477" cy="57" r="2" fill="#2d333b" /><circle cx="477" cy="71" r="2" fill="#2d333b" /><circle cx="477" cy="85" r="2" fill="#2d333b" /><circle cx="477" cy="99" r="2" fill="#2d333b" /><circle cx="491" cy="15" r="2" fill="#2d333b" /><circle cx="491" cy="29" r="2" fill="#2d333b" /><circle cx="491" cy="43" r="2" fill="#2d333b" /><circle cx="491" cy="57" r="2" fill="#2d333b" /><circle cx="491" cy="71" r="2" fill="#2d333b" /><circle cx="491" cy="85" r="2" fill="#2d333b" /><circle cx="491" cy="99" r="2" fill="#2d333b" /><circle cx="505" cy="15" r="2" fill="#2d333b" /><circle cx="505" cy="29" r="2" fill="#2d333b" /><circle cx="505" cy="43" r="2" fill="#2d333b" /><circle cx="505" cy="57" r="2" fill="#2d333b" /><circle cx="505" cy="71" r="2" fill="#2d333b" /><circle cx="505" cy="85" r="2" fill="#2d333b" /><circle cx="505" cy="99" r="2" fill="#2d333b" /><circle cx="519" cy="15" r="2" fill="#2d333b" /><circle cx="519" cy="29" r="2" fill="#2d333b" /><circle cx="519" cy="43" r="2" fill="#2d333b" /><circle cx="519" cy="57" r="2" fill="#2d333b" /><circle cx="519" cy="71" r="2" fill="#2d333b" /><circle cx="519" cy="85" r="2" fill="#2d333b" /><circle cx="519" cy="99" r="2" fill="#2d333b" /><circle cx="533" cy="15" r="2" fill="#2d333b" /><circle cx="533" cy="29" r="2" fill="#2d333b" /><path d="M533,43 L538,38 A5,5 0 1,0 538,48 Z" fill="#f1fa8c" /><circle cx="533" cy="57" r="2" fill="#2d333b" /><circle cx="533" cy="71" r="2" fill="#2d333b" /><circle cx="533" cy="85" r="2" fill="#2d333b" /><circle cx="533" cy="99" r="2" fill="#2d333b" /><circle cx="547" cy="15" r="2" fill="#2d333b" /><circle cx="547" cy="29" r="2" fill="#2d333b" /><circle cx="547" cy="43" r="2" fill="#2d333b" /><circle cx="547" cy="57" r="2" fill="#2d333b" /><circle cx="547" cy="71" r="2" fill="#2d333b" /><circle cx="547" cy="85" r="2" fill="#2d333b" /><circle cx="547" cy="99" r="2" fill="#2d333b" /><circle cx="561" cy="15" r="2" fill="#2d333b" /><circle cx="561" cy="29" r="2" fill="#2d333b" /><circle cx="561" cy="43" r="2" fill="#2d333b" /><circle cx="561" cy="57" r="2" fill="#2d333b" /><circle cx="561" cy="71" r="2" fill="#2d333b" /><circle cx="561" cy="85" r="2" fill="#2d333b" /><circle cx="561" cy="99" r="2" fill="#2d333b" /><circle cx="575" cy="15" r="2" fill="#2d333b" /><circle cx="575" cy="29" r="2" fill="#2d333b" /><circle cx="575" cy="43" r="2" fill="#2d333b" /><circle cx="575" cy="57" r="2" fill="#2d333b" /><circle cx="575" cy="71" r="2" fill="#2d333b" /><circle cx="575" cy="85" r="2" fill="#2d333b" /><circle cx="575" cy="99" r="2" fill="#2d333b" /><circle cx="589" cy="15" r="2" fill="#2d333b" /><circle cx="589" cy="29" r="2" fill="#2d333b" /><circle cx="589" cy="43" r="2" fill="#2d333b" /><circle cx="589" cy="57" r="2" fill="#2d333b" /><circle cx="589" cy="71" r="2" fill="#2d333b" /><circle cx="589" cy="85" r="2" fill="#2d333b" /><circle cx="589" cy="99" r="2" fill="#2d333b" /><circle cx="603" cy="15" r="2" fill="#2d333b" /><circle cx="603" cy="29" r="2" fill="#2d333b" /><circle cx="603" cy="43" r="2" fill="#2d333b" /><circle cx="603" cy="57" r="2" fill="#2d333b" /><circle cx="603" cy="71" r="2" fill="#2d333b" /><circle cx="603" cy="85" r="2" fill="#2d333b" /><circle cx="603" cy="99" r="2" fill="#2d333b" /><circle cx="617" cy="15" r="2" fill="#2d333b" /><circle cx="617" cy="29" r="2" fill="#2d333b" /><circle cx="617" cy="43" r="2" fill="#2d333b" /><circle cx="617" cy="57" r="2" fill="#2d333b" /><circle cx="617" cy="71" r="2" fill="#2d333b" /><circle cx="617" cy="85" r="2" fill="#2d333b" /><circle cx="617" cy="99" r="2" fill="#2d333b" /><circle cx="631" cy="15" r="2" fill="#2d333b" /><circle cx="631" cy="29" r="2" fill="#2d333b" /><circle cx="631" cy="43" r="2" fill="#2d333b" /><circle cx="631" cy="57" r="2" fill="#2d333b" /><circle cx="631" cy="71" r="2" fill="#2d333b" /><circle cx="631" cy="85" r="2" fill="#2d333b" /><circle cx="631" cy="99" r="2" fill="#2d333b" /><circle cx="645" cy="15" r="2" fill="#2d333b" /><circle cx="645" cy="29" r="2" fill="#2d333b" /><circle cx="645" cy="43" r="2" fill="#2d333b" /><circle cx="645" cy="57" r="2" fill="#2d333b" /><circle cx="645" cy="71" r="2" fill="#2d333b" /><circle cx="645" cy="85" r="2" fill="#2d333b" /><circle cx="645" cy="99" r="2" fill="#2d333b" /><circle cx="659" cy="15" r="2" fill="#2d333b" /><circle cx="659" cy="29" r="2" fill="#2d333b" /><circle cx="659" cy="43" r="2" fill="#2d333b" /><circle cx="659" cy="57" r="2" fill="#2d333b" /><circle cx="659" cy="71" r="2" fill="#2d333b" /><circle cx="659" cy="85" r="2" fill="#2d333b" /><circle cx="659" cy="99" r="2" fill="#2d333b" /><circle cx="673" cy="15" r="2" fill="#2d333b" /><circle cx="673" cy="29" r="2" fill="#2d333b" /><circle cx="673" cy="43" r="2" fill="#2d333b" /><circle cx="673" cy="57" r="2" fill="#2d333b" /><circle cx="673" cy="71" r="2" fill="#2d333b" /><circle cx="673" cy="85" r="2" fill="#2d333b" /><circle cx="673" cy="99" r="2" fill="#2d333b" /><circle cx="687" cy="15" r="2" fill="#2d333b" /><circle cx="687" cy="29" r="2" fill="#2d333b" /><circle cx="687" cy="43" r="2" fill="#2d333b" /><circle cx="687" cy="57" r="2" fill="#2d333b" /><circle cx="687" cy="71" r="2" fill="#2d333b" /><circle cx="687" cy="85" r="2" fill="#2d333b" /><circle cx="687" cy="99" r="2" fill="#2d333b" /><circle cx="701" cy="15" r="2" fill="#2d333b" /><circle cx="701" cy="29" r="2" fill="#2d333b" /><circle cx="701" cy="43" r="2" fill="#2d333b" /><circle cx="701" cy="57" r="2" fill="#2d333b" /><circle cx="701" cy="71" r="2" fill="#2d333b" /><circle cx="701" cy="85" r="2" fill="#2d333b" /><circle cx="701" cy="99" r="2" fill="#2d333b" /><circle cx="715" cy="15" r="2" fill="#2d333b" /><circle cx="715" cy="29" r="2" fill="#2d333b" /><circle cx="715" cy="43" r="2" fill="#2d333b" /><circle cx="715" cy="57" r="2" fill="#2d333b" /><circle cx="715" cy="71" r="2" fill="#2d333b" /><circle cx="715" cy="85" r="2" fill="#2d333b" /><circle cx="715" cy="99" r="2" fill="#2d333b" /><circle cx="729" cy="15" r="2" fill="#2d333b" /><circle cx="729" cy="29" r="2" fill="#2d333b" /><circle cx="729" cy="43" r="2" fill="#2d333b" /><circle cx="729" cy="57" r="2" fill="#2d333b" /><circle cx="729" cy="71" r="2" fill="#2d333b" /><circle cx="729" cy="85" r="2" fill="#2d333b" /><path d="M729,99 L734,94 A5,5 0 1,0 734,104 Z" fill="#f1fa8c" /><circle cx="743" cy="15" r="2" fill="#2d333b" /><circle cx="743" cy="29" r="2" fill="#2d333b" /><circle cx="743" cy="43" r="2" fill="#2d333b" /><circle cx="743" cy="57" r="2" fill="#2d333b" /><circle cx="743" cy="71" r="2" fill="#2d333b" /><circle cx="743" cy="85" r="2" fill="#2d333b" /></svg>